<svg viewBox="0,0,975,600" xmlns="http://www.w3.org/2000/svg" xmlns:xlink="http://www.w3.org/1999/xlink"><g stroke="#000"><rect x="1" y="5.000000000000002" height="550.0000000000001" width="15" fill="#1f77b4"><title>HDPE
3 TWh</title></rect><rect x="1" y="565" height="0" width="15" fill="#ff7f0e"><title>LDPE
0 TWh</title></rect><rect x="1" y="575" height="0" width="15" fill="#2ca02c"><title>PP
0 TWh</title></rect><rect x="1" y="585" height="0" width="15" fill="#d62728"><title>PLA
0 TWh</title></rect><rect x="1" y="595" height="0" width="15" fill="#9467bd"><title>PHA
0 TWh</title></rect><rect x="192.6" y="5.000000000000002" height="557.8822960095292" width="15" fill="#8c564b"><title>Households
3 TWh</title></rect><rect x="384.2" y="5" height="341.90738534842166" width="15" fill="#e377c2"><title>Curbside Collection
2 TWh</title></rect><rect x="384.2" y="419.1339625598286" height="154.84105122096497" width="15" fill="#7f7f7f"><title>Dropoff
1 TWh</title></rect><rect x="575.8" y="35.49823188106725" height="430.2914681357951" width="15" fill="#bcbd22"><title>Incineration
2 TWh</title></rect><rect x="767.4" y="30.41471839393686" height="43.19907683144729" width="15" fill="#17becf"><title>Landfill
0 TWh</title></rect><rect x="575.8" y="518.5168256991724" height="0" width="15" fill="#1f77b4"><title>Pyrolysis
0 TWh</title></rect><rect x="575.8" y="560.0728670339488" height="0" width="15" fill="#ff7f0e"><title>Segregation
0 TWh</title></rect><rect x="959" y="327.28746220099305" height="114.40589636688503" width="15" fill="#2ca02c"><title>Losses
1 TWh</title></rect><rect x="767.4" y="179.89930762358546" height="0" width="15" fill="#d62728"><title>rHDPE
0 TWh</title></rect><rect x="767.4" y="250.74942301965453" height="0" width="15" fill="#9467bd"><title>rLDPE
0 TWh</title></rect><rect x="767.4" y="321.5995384157236" height="0" width="15" fill="#8c564b"><title>rPP
0 TWh</title></rect><rect x="767.4" y="392.4496538117927" height="0" width="15" fill="#e377c2"><title>rPLA
0 TWh</title></rect><rect x="767.4" y="463.2997692078618" height="0" width="15" fill="#7f7f7f"><title>rPHA
0 TWh</title></rect><rect x="767.4" y="534.1498846039309" height="0" width="15" fill="#bcbd22"><title>Compost
0 TWh</title></rect></g><g fill="none" stroke-opacity="0.5"><g style="mix-blend-mode: multiply;"><linearGradient id="O-link-1085" gradientUnits="userSpaceOnUse" x1="16" x2="192.6"><stop offset="0%" stop-color="#1f77b4"/><stop offset="100%" stop-color="#8c564b"/></linearGradient><path d="M16,280C104.3,280,104.3,280,192.6,280" stroke="url(#O-link-1085)" stroke-width="550"/><title>HDPE → Households
3 TWh</title></g><g style="mix-blend-mode: multiply;"><linearGradient id="O-link-1086" gradientUnits="userSpaceOnUse" x1="16" x2="192.6"><stop offset="0%" stop-color="#ff7f0e"/><stop offset="100%" stop-color="#8c564b"/></linearGradient><path d="M16,565C104.3,565,104.3,555,192.6,555" stroke="url(#O-link-1086)" stroke-width="1"/><title>LDPE → Households
0 TWh</title></g><g style="mix-blend-mode: multiply;"><linearGradient id="O-link-1087" gradientUnits="userSpaceOnUse" x1="16" x2="192.6"><stop offset="0%" stop-color="#2ca02c"/><stop offset="100%" stop-color="#8c564b"/></linearGradient><path d="M16,575C104.3,575,104.3,555,192.6,555" stroke="url(#O-link-1087)" stroke-width="1"/><title>PP → Households
0 TWh</title></g><g style="mix-blend-mode: multiply;"><linearGradient id="O-link-1088" gradientUnits="userSpaceOnUse" x1="16" x2="192.6"><stop offset="0%" stop-color="#d62728"/><stop offset="100%" stop-color="#8c564b"/></linearGradient><path d="M16,585C104.3,585,104.3,555,192.6,555" stroke="url(#O-link-1088)" stroke-width="1"/><title>PLA → Households
0 TWh</title></g><g style="mix-blend-mode: multiply;"><linearGradient id="O-link-1089" gradientUnits="userSpaceOnUse" x1="16" x2="192.6"><stop offset="0%" stop-color="#9467bd"/><stop offset="100%" stop-color="#8c564b"/></linearGradient><path d="M16,595C104.3,595,104.3,555,192.6,555" stroke="url(#O-link-1089)" stroke-width="1"/><title>PHA → Households
0 TWh</title></g><g style="mix-blend-mode: multiply;"><linearGradient id="O-link-1090" gradientUnits="userSpaceOnUse" x1="207.6" x2="384.2"><stop offset="0%" stop-color="#8c564b"/><stop offset="100%" stop-color="#e377c2"/></linearGradient><path d="M207.6,175.95369267421083C295.9,175.95369267421083,295.9,175.95369267421083,384.2,175.95369267421083" stroke="url(#O-link-1090)" stroke-width="341.90738534842166"/><title>Households → Curbside Collection
2 TWh</title></g><g style="mix-blend-mode: multiply;"><linearGradient id="O-link-1091" gradientUnits="userSpaceOnUse" x1="207.6" x2="384.2"><stop offset="0%" stop-color="#8c564b"/><stop offset="100%" stop-color="#7f7f7f"/></linearGradient><path d="M207.6,487.53983025610484C295.9,487.53983025610484,295.9,494.4764283132533,384.2,494.4764283132533" stroke="url(#O-link-1091)" stroke-width="150.68493150684932"/><title>Households → Dropoff
1 TWh</title></g><g style="mix-blend-mode: multiply;"><linearGradient id="O-link-1092" gradientUnits="userSpaceOnUse" x1="207.6" x2="959"><stop offset="0%" stop-color="#8c564b"/><stop offset="100%" stop-color="#2ca02c"/></linearGradient><path d="M207.6,379.5523749255509C583.3,379.5523749255509,583.3,386.1180533266631,959,386.1180533266631" stroke="url(#O-link-1092)" stroke-width="65.28997915425849"/><title>Households → Losses
0 TWh</title></g><g style="mix-blend-mode: multiply;"><linearGradient id="O-link-1093" gradientUnits="userSpaceOnUse" x1="399.2" x2="575.8"><stop offset="0%" stop-color="#e377c2"/><stop offset="100%" stop-color="#bcbd22"/></linearGradient><path d="M399.2,151.7949672424062C487.5,151.7949672424062,487.5,182.29319912347344,575.8,182.29319912347344" stroke="url(#O-link-1093)" stroke-width="293.5899344848124"/><title>Curbside Collection → Incineration
1 TWh</title></g><g style="mix-blend-mode: multiply;"><linearGradient id="O-link-1094" gradientUnits="userSpaceOnUse" x1="399.2" x2="575.8"><stop offset="0%" stop-color="#7f7f7f"/><stop offset="100%" stop-color="#bcbd22"/></linearGradient><path d="M399.2,487.48472938531995C487.5,487.48472938531995,487.5,397.43893319137095,575.8,397.43893319137095" stroke="url(#O-link-1094)" stroke-width="136.70153365098273"/><title>Dropoff → Incineration
1 TWh</title></g><g style="mix-blend-mode: multiply;"><linearGradient id="O-link-1095" gradientUnits="userSpaceOnUse" x1="399.2" x2="767.4"><stop offset="0%" stop-color="#e377c2"/><stop offset="100%" stop-color="#17becf"/></linearGradient><path d="M399.2,5C583.3,5,583.3,30.41471839393686,767.4,30.41471839393686" stroke="url(#O-link-1095)" stroke-width="1"/><title>Curbside Collection → Landfill
0 TWh</title></g><g style="mix-blend-mode: multiply;"><linearGradient id="O-link-1096" gradientUnits="userSpaceOnUse" x1="399.2" x2="767.4"><stop offset="0%" stop-color="#7f7f7f"/><stop offset="100%" stop-color="#17becf"/></linearGradient><path d="M399.2,419.1339625598286C583.3,419.1339625598286,583.3,73.61379522538415,767.4,73.61379522538415" stroke="url(#O-link-1096)" stroke-width="1"/><title>Dropoff → Landfill
0 TWh</title></g><g style="mix-blend-mode: multiply;"><linearGradient id="O-link-1097" gradientUnits="userSpaceOnUse" x1="399.2" x2="575.8"><stop offset="0%" stop-color="#e377c2"/><stop offset="100%" stop-color="#1f77b4"/></linearGradient><path d="M399.2,324.7755360333532C487.5,324.7755360333532,487.5,518.5168256991724,575.8,518.5168256991724" stroke="url(#O-link-1097)" stroke-width="1"/><title>Curbside Collection → Pyrolysis
0 TWh</title></g><g style="mix-blend-mode: multiply;"><linearGradient id="O-link-1098" gradientUnits="userSpaceOnUse" x1="399.2" x2="575.8"><stop offset="0%" stop-color="#7f7f7f"/><stop offset="100%" stop-color="#1f77b4"/></linearGradient><path d="M399.2,573.9750137807935C487.5,573.9750137807935,487.5,518.5168256991724,575.8,518.5168256991724" stroke="url(#O-link-1098)" stroke-width="1"/><title>Dropoff → Pyrolysis
0 TWh</title></g><g style="mix-blend-mode: multiply;"><linearGradient id="O-link-1099" gradientUnits="userSpaceOnUse" x1="399.2" x2="575.8"><stop offset="0%" stop-color="#e377c2"/><stop offset="100%" stop-color="#ff7f0e"/></linearGradient><path d="M399.2,324.7755360333532C487.5,324.7755360333532,487.5,560.0728670339488,575.8,560.0728670339488" stroke="url(#O-link-1099)" stroke-width="1"/><title>Curbside Collection → Segregation
0 TWh</title></g><g style="mix-blend-mode: multiply;"><linearGradient id="O-link-1100" gradientUnits="userSpaceOnUse" x1="399.2" x2="575.8"><stop offset="0%" stop-color="#7f7f7f"/><stop offset="100%" stop-color="#ff7f0e"/></linearGradient><path d="M399.2,573.9750137807935C487.5,573.9750137807935,487.5,560.0728670339488,575.8,560.0728670339488" stroke="url(#O-link-1100)" stroke-width="1"/><title>Dropoff → Segregation
0 TWh</title></g><g style="mix-blend-mode: multiply;"><linearGradient id="O-link-1101" gradientUnits="userSpaceOnUse" x1="399.2" x2="959"><stop offset="0%" stop-color="#e377c2"/><stop offset="100%" stop-color="#2ca02c"/></linearGradient><path d="M399.2,311.6827352590828C679.1,311.6827352590828,679.1,340.38026297526346,959,340.38026297526346" stroke="url(#O-link-1101)" stroke-width="26.185601548540802"/><title>Curbside Collection → Losses
0 TWh</title></g><g style="mix-blend-mode: multiply;"><linearGradient id="O-link-1102" gradientUnits="userSpaceOnUse" x1="399.2" x2="959"><stop offset="0%" stop-color="#7f7f7f"/><stop offset="100%" stop-color="#2ca02c"/></linearGradient><path d="M399.2,564.9052549958025C679.1,564.9052549958025,679.1,432.623599782887,959,432.623599782887" stroke="url(#O-link-1102)" stroke-width="18.139517569982132"/><title>Dropoff → Losses
0 TWh</title></g><g style="mix-blend-mode: multiply;"><linearGradient id="O-link-1103" gradientUnits="userSpaceOnUse" x1="590.8" x2="959"><stop offset="0%" stop-color="#bcbd22"/><stop offset="100%" stop-color="#2ca02c"/></linearGradient><path d="M590.8,81.09270775956635C774.9,81.09270775956635,774.9,421.1584419508441,959,421.1584419508441" stroke="url(#O-link-1103)" stroke-width="4.790798094103634"/><title>Incineration → Losses
0 TWh</title></g><g style="mix-blend-mode: multiply;"><linearGradient id="O-link-1104" gradientUnits="userSpaceOnUse" x1="590.8" x2="767.4"><stop offset="0%" stop-color="#bcbd22"/><stop offset="100%" stop-color="#17becf"/></linearGradient><path d="M590.8,57.0977702967909C679.0999999999999,57.0977702967909,679.0999999999999,52.01425680966051,767.4,52.01425680966051" stroke="url(#O-link-1104)" stroke-width="43.19907683144729"/><title>Incineration → Landfill
0 TWh</title></g><g style="mix-blend-mode: multiply;"><linearGradient id="O-link-1105" gradientUnits="userSpaceOnUse" x1="782.4" x2="959"><stop offset="0%" stop-color="#17becf"/><stop offset="100%" stop-color="#2ca02c"/></linearGradient><path d="M782.4,30.41471839393686C870.7,30.41471839393686,870.7,418.7630429037923,959,418.7630429037923" stroke="url(#O-link-1105)" stroke-width="1"/><title>Landfill → Losses
0 TWh</title></g><g style="mix-blend-mode: multiply;"><linearGradient id="O-link-1106" gradientUnits="userSpaceOnUse" x1="590.8" x2="959"><stop offset="0%" stop-color="#1f77b4"/><stop offset="100%" stop-color="#2ca02c"/></linearGradient><path d="M590.8,518.5168256991724C774.9,518.5168256991724,774.9,441.69335856787814,959,441.69335856787814" stroke="url(#O-link-1106)" stroke-width="1"/><title>Pyrolysis → Losses
0 TWh</title></g><g style="mix-blend-mode: multiply;"><linearGradient id="O-link-1107" gradientUnits="userSpaceOnUse" x1="590.8" x2="959"><stop offset="0%" stop-color="#ff7f0e"/><stop offset="100%" stop-color="#2ca02c"/></linearGradient><path d="M590.8,560.0728670339488C774.9,560.0728670339488,774.9,441.69335856787814,959,441.69335856787814" stroke="url(#O-link-1107)" stroke-width="1"/><title>Segregation → Losses
0 TWh</title></g><g style="mix-blend-mode: multiply;"><linearGradient id="O-link-1108" gradientUnits="userSpaceOnUse" x1="590.8" x2="767.4"><stop offset="0%" stop-color="#ff7f0e"/><stop offset="100%" stop-color="#d62728"/></linearGradient><path d="M590.8,560.0728670339488C679.0999999999999,560.0728670339488,679.0999999999999,179.89930762358546,767.4,179.89930762358546" stroke="url(#O-link-1108)" stroke-width="1"/><title>Segregation → rHDPE
0 TWh</title></g><g style="mix-blend-mode: multiply;"><linearGradient id="O-link-1109" gradientUnits="userSpaceOnUse" x1="590.8" x2="767.4"><stop offset="0%" stop-color="#ff7f0e"/><stop offset="100%" stop-color="#9467bd"/></linearGradient><path d="M590.8,560.0728670339488C679.0999999999999,560.0728670339488,679.0999999999999,250.74942301965453,767.4,250.74942301965453" stroke="url(#O-link-1109)" stroke-width="1"/><title>Segregation → rLDPE
0 TWh</title></g><g style="mix-blend-mode: multiply;"><linearGradient id="O-link-1110" gradientUnits="userSpaceOnUse" x1="590.8" x2="767.4"><stop offset="0%" stop-color="#ff7f0e"/><stop offset="100%" stop-color="#8c564b"/></linearGradient><path d="M590.8,560.0728670339488C679.0999999999999,560.0728670339488,679.0999999999999,321.5995384157236,767.4,321.5995384157236" stroke="url(#O-link-1110)" stroke-width="1"/><title>Segregation → rPP
0 TWh</title></g><g style="mix-blend-mode: multiply;"><linearGradient id="O-link-1111" gradientUnits="userSpaceOnUse" x1="590.8" x2="767.4"><stop offset="0%" stop-color="#ff7f0e"/><stop offset="100%" stop-color="#e377c2"/></linearGradient><path d="M590.8,560.0728670339488C679.0999999999999,560.0728670339488,679.0999999999999,392.4496538117927,767.4,392.4496538117927" stroke="url(#O-link-1111)" stroke-width="1"/><title>Segregation → rPLA
0 TWh</title></g><g style="mix-blend-mode: multiply;"><linearGradient id="O-link-1112" gradientUnits="userSpaceOnUse" x1="590.8" x2="767.4"><stop offset="0%" stop-color="#ff7f0e"/><stop offset="100%" stop-color="#7f7f7f"/></linearGradient><path d="M590.8,560.0728670339488C679.0999999999999,560.0728670339488,679.0999999999999,463.2997692078618,767.4,463.2997692078618" stroke="url(#O-link-1112)" stroke-width="1"/><title>Segregation → rPHA
0 TWh</title></g><g style="mix-blend-mode: multiply;"><linearGradient id="O-link-1113" gradientUnits="userSpaceOnUse" x1="590.8" x2="767.4"><stop offset="0%" stop-color="#ff7f0e"/><stop offset="100%" stop-color="#bcbd22"/></linearGradient><path d="M590.8,560.0728670339488C679.0999999999999,560.0728670339488,679.0999999999999,534.1498846039309,767.4,534.1498846039309" stroke="url(#O-link-1113)" stroke-width="1"/><title>Segregation → Compost
0 TWh</title></g><g style="mix-blend-mode: multiply;"><linearGradient id="O-link-1114" gradientUnits="userSpaceOnUse" x1="782.4" x2="959"><stop offset="0%" stop-color="#d62728"/><stop offset="100%" stop-color="#2ca02c"/></linearGradient><path d="M782.4,179.89930762358546C870.7,179.89930762358546,870.7,423.553840997896,959,423.553840997896" stroke="url(#O-link-1114)" stroke-width="1"/><title>rHDPE → Losses
0 TWh</title></g><g style="mix-blend-mode: multiply;"><linearGradient id="O-link-1115" gradientUnits="userSpaceOnUse" x1="782.4" x2="959"><stop offset="0%" stop-color="#9467bd"/><stop offset="100%" stop-color="#2ca02c"/></linearGradient><path d="M782.4,250.74942301965453C870.7,250.74942301965453,870.7,423.553840997896,959,423.553840997896" stroke="url(#O-link-1115)" stroke-width="1"/><title>rLDPE → Losses
0 TWh</title></g><g style="mix-blend-mode: multiply;"><linearGradient id="O-link-1116" gradientUnits="userSpaceOnUse" x1="782.4" x2="959"><stop offset="0%" stop-color="#8c564b"/><stop offset="100%" stop-color="#2ca02c"/></linearGradient><path d="M782.4,321.5995384157236C870.7,321.5995384157236,870.7,423.553840997896,959,423.553840997896" stroke="url(#O-link-1116)" stroke-width="1"/><title>rPP → Losses
0 TWh</title></g><g style="mix-blend-mode: multiply;"><linearGradient id="O-link-1117" gradientUnits="userSpaceOnUse" x1="782.4" x2="959"><stop offset="0%" stop-color="#e377c2"/><stop offset="100%" stop-color="#2ca02c"/></linearGradient><path d="M782.4,392.4496538117927C870.7,392.4496538117927,870.7,423.553840997896,959,423.553840997896" stroke="url(#O-link-1117)" stroke-width="1"/><title>rPLA → Losses
0 TWh</title></g><g style="mix-blend-mode: multiply;"><linearGradient id="O-link-1118" gradientUnits="userSpaceOnUse" x1="782.4" x2="959"><stop offset="0%" stop-color="#7f7f7f"/><stop offset="100%" stop-color="#2ca02c"/></linearGradient><path d="M782.4,463.2997692078618C870.7,463.2997692078618,870.7,441.69335856787814,959,441.69335856787814" stroke="url(#O-link-1118)" stroke-width="1"/><title>rPHA → Losses
0 TWh</title></g><g style="mix-blend-mode: multiply;"><linearGradient id="O-link-1119" gradientUnits="userSpaceOnUse" x1="782.4" x2="959"><stop offset="0%" stop-color="#bcbd22"/><stop offset="100%" stop-color="#2ca02c"/></linearGradient><path d="M782.4,534.1498846039309C870.7,534.1498846039309,870.7,441.69335856787814,959,441.69335856787814" stroke="url(#O-link-1119)" stroke-width="1"/><title>Compost → Losses
0 TWh</title></g></g><g style="font: 14px sans-serif;"><text x="22" y="280.00000000000006" dy="0.35em" text-anchor="start">HDPE</text><text x="22" y="565" dy="0.35em" text-anchor="start">LDPE</text><text x="22" y="575" dy="0.35em" text-anchor="start">PP</text><text x="22" y="585" dy="0.35em" text-anchor="start">PLA</text><text x="22" y="595" dy="0.35em" text-anchor="start">PHA</text><text x="213.6" y="283.9411480047646" dy="0.35em" text-anchor="start">Households</text><text x="405.2" y="175.95369267421083" dy="0.35em" text-anchor="start">Curbside Collection</text><text x="405.2" y="496.55448817031106" dy="0.35em" text-anchor="start">Dropoff</text><text x="569.8" y="250.6439659489648" dy="0.35em" text-anchor="end">Incineration</text><text x="761.4" y="52.01425680966051" dy="0.35em" text-anchor="end">Landfill</text><text x="569.8" y="518.5168256991724" dy="0.35em" text-anchor="end">Pyrolysis</text><text x="569.8" y="560.0728670339488" dy="0.35em" text-anchor="end">Segregation</text><text x="953" y="384.49041038443556" dy="0.35em" text-anchor="end">Losses</text><text x="761.4" y="179.89930762358546" dy="0.35em" text-anchor="end">rHDPE</text><text x="761.4" y="250.74942301965453" dy="0.35em" text-anchor="end">rLDPE</text><text x="761.4" y="321.5995384157236" dy="0.35em" text-anchor="end">rPP</text><text x="761.4" y="392.4496538117927" dy="0.35em" text-anchor="end">rPLA</text><text x="761.4" y="463.2997692078618" dy="0.35em" text-anchor="end">rPHA</text><text x="761.4" y="534.1498846039309" dy="0.35em" text-anchor="end">Compost</text></g></svg>